<?xml version="1.0" encoding="UTF-8"?>
<svg id="Design" xmlns="http://www.w3.org/2000/svg" viewBox="0 0 24 24">
  <defs>
    <style>
      .cls-1 {
        fill: #fff;
      }
    </style>
  </defs>
  <path class="cls-1" d="M12,3C6.996,3,3.018,6.978,3.018,11.982h0c0,5.004,3.978,8.982,8.982,8.982,1.668,0,3.208-.513,4.619-1.283,1.155.385,3.593,1.796,4.106,1.155.642-.642-.77-3.336-1.026-4.363.898-1.411,1.283-2.951,1.283-4.491,0-5.004-3.978-8.982-8.982-8.982h0ZM12,6.464c3.079,0,5.517,2.438,5.517,5.517h0c0,3.079-2.438,5.517-5.517,5.517s-5.517-2.438-5.517-5.517,2.438-5.517,5.517-5.517h0Z"/>
</svg>