<svg width="346.67" height="346.67" version="1.1" viewBox="0 0 346.67 314.67" xmlns="http://www.w3.org/2000/svg" fill="#fff">
	<path d="m7.8999 299.13c21.879-19.622 55.284-39.861 81.103-64.84l-74.774 9.0528c35.15-17.324 57.005-23.956 88.667-39.163-16.825-7.4226-43.232-21.306-56.191-27.946l101.09 9.0045c-0.40509-17.886 30.964-70.105 19.077-75.775-8.0753 0.24877-39.537 5.8507-53.311 6.8099 12.262-8.8152 38.515-21.467 48.735-27.491-18.371-12.382-40.884-27.446-57.402-36.524 21.037 5.4565 44.105 9.5329 62.034 15.014-18.174-22.094-33.262-38.638-49.58-55.68l70.459 38.523c0.74046 0 3.4712 4.05 6.0683 9 2.5971 4.95 9.5888 16.996 15.537 26.769 5.9482 9.7731 10.815 18.063 10.815 18.422 0 0.3592 1.5712 2.7131 3.4916 5.2308 1.9204 2.5177 3.1385 4.5777 2.7069 4.5777-0.43162 0 0.54717 2.0315 2.1751 4.5145 1.6279 2.483 3.9953 6.4063 5.2609 8.7185l2.3011 4.204 3.6989-2.3544c2.0344-1.2949 3.9989-2.6692 4.3656-3.054 0.36666-0.38478 2.3167-1.55 4.3333-2.5894l3.6667-1.8898v-4.8777c-10.821-2.1045-37.633-6.756-17.182-7.5025 9.9723-1.9942 11.314-5.1215 3.3692-7.8528-5.4924-1.8882-7.0212-2.927-5.9234-4.0248 22.457-2.2824 43.627-7.5072 66.283-8.3959 10.709-2.1671 19.261-10.85 28.833-14.431l2.2642-0.86884-3.1619 5.9081 1.5891 1.9148c0.87401 1.0531 2.5656 1.9363 3.7592 1.9627l2.1701 0.04795-3.6667 3.0021c-20.349 20.639-36.353 46.105-49.073 73.203-7.4331 11.149-1.7607 25.663-20.835 31.165-2.0675 0.49305-5.2591 1.6451-7.0924 2.5601-73.465 23.692-181.19 87.199-245.66 105.65z" />
</svg>
