<?xml version="1.0" encoding="UTF-8" standalone="no"?>
<svg
   xmlns:dc="http://purl.org/dc/elements/1.1/"
   xmlns:cc="http://creativecommons.org/ns#"
   xmlns:rdf="http://www.w3.org/1999/02/22-rdf-syntax-ns#"
   xmlns:svg="http://www.w3.org/2000/svg"
   xmlns="http://www.w3.org/2000/svg"
   xmlns:sodipodi="http://sodipodi.sourceforge.net/DTD/sodipodi-0.dtd"
   xmlns:inkscape="http://www.inkscape.org/namespaces/inkscape"
   id="svg6"
   version="1.1"
   width="48"
   height="48"
   viewbox="0 0 16 16"
   sodipodi:docname="group-avatar.svg"
   inkscape:version="1.0beta2 (2b71d25, 2019-12-03)">
  <sodipodi:namedview
     pagecolor="#ffffff"
     bordercolor="#666666"
     inkscape:document-rotation="0"
     borderopacity="1"
     objecttolerance="10"
     gridtolerance="10"
     guidetolerance="10"
     inkscape:pageopacity="0"
     inkscape:pageshadow="2"
     inkscape:window-width="1920"
     inkscape:window-height="1027"
     id="namedview15"
     showgrid="false"
     inkscape:zoom="17.9375"
     inkscape:cx="24"
     inkscape:cy="24"
     inkscape:window-x="0"
     inkscape:window-y="25"
     inkscape:window-maximized="1"
     inkscape:current-layer="svg6" />
  <metadata
     id="metadata12">
    <rdf:RDF>
      <cc:Work
         rdf:about="">
        <dc:format>image/svg+xml</dc:format>
        <dc:type
           rdf:resource="http://purl.org/dc/dcmitype/StillImage" />
        <dc:title />
        <dc:title />
      </cc:Work>
    </rdf:RDF>
  </metadata>
  <defs
     id="defs10" />
  <rect
     style="fill:#B3B3B3"
     y="0"
     x="0"
     id="rect2"
     height="100%"
     width="100%" />
  <path
     id="path17"
     fill="#fff"
     d="m 19.474957,16.290894 c -1.472004,0 -2.720386,1.076708 -2.720386,2.465883 0.01067,0.438973 0.04972,0.980333 0.311721,2.125561 v 0.02788 l 0.02871,0.02867 c 0.08436,0.240945 0.207059,0.378734 0.368935,0.566969 0.161879,0.188232 0.353884,0.409606 0.538357,0.594829 l 0.05654,0.05716 c 0.03623,0.158106 0.08041,0.32827 0.112937,0.481879 0.0882,0.406586 0.079,0.694208 0.05716,0.792848 -0.63248,0.222118 -1.419293,0.48715 -2.125562,0.793598 -0.396048,0.171671 -0.754451,0.326024 -1.048098,0.509748 -0.293641,0.183713 -0.58504,0.323759 -0.67989,0.736375 a 0.35614197,0.35614197 0 0 0 0,0.05716 c -0.09257,0.850829 -0.233414,2.102972 -0.340327,2.947773 a 0.46531868,0.46531868 0 0 0 0.225882,0.454027 c 1.283003,0.692705 3.252702,0.971297 5.215625,0.963769 1.962919,-0.0091 3.916807,-0.303437 5.157656,-0.963769 a 0.46531868,0.46531868 0 0 0 0.225887,-0.45403 c -0.03303,-0.263522 -0.0753,-0.858348 -0.112961,-1.445643 -0.03764,-0.585789 -0.06783,-1.161793 -0.112937,-1.501367 a 0.45703629,0.45703629 0 0 0 -0.11296,-0.225849 c -0.394537,-0.471348 -0.983337,-0.758968 -1.671529,-1.048854 -0.629461,-0.265033 -1.366592,-0.539857 -2.097699,-0.850822 -0.04136,-0.09031 -0.08273,-0.356144 0,-0.76499 0.02271,-0.108423 0.05576,-0.225884 0.08505,-0.338826 l 0.198023,-0.225883 c 0.162636,-0.186728 0.336567,-0.380989 0.481883,-0.567719 0.144567,-0.188235 0.26353,-0.347861 0.34033,-0.566961 l 0.02788,-0.0287 c 0.295905,-1.195675 0.295905,-1.694123 0.310965,-2.125559 v -0.02788 c 0,-1.389183 -1.248382,-2.465891 -2.720382,-2.465891 z m 7.782415,-2.26259 c -2.145885,0 -3.966502,1.56913 -3.966502,3.594549 0.01498,0.64 0.07239,1.429081 0.454776,3.098357 v 0.04136 l 0.04136,0.04136 c 0.121975,0.350872 0.301179,0.551906 0.536848,0.825976 0.235668,0.27407 0.51727,0.597081 0.785317,0.868141 0.0302,0.0316 0.05112,0.05112 0.08273,0.08273 0.05262,0.2304 0.116705,0.47887 0.165648,0.701743 0.126497,0.593319 0.11294,1.01346 0.08273,1.157276 -0.923107,0.323762 -2.070593,0.709271 -3.099865,1.156518 -0.578261,0.251485 -1.100803,0.475858 -1.528469,0.743909 -0.429178,0.268044 -0.853843,0.470587 -0.991627,1.074445 a 0.50447167,0.50447167 0 0 0 0,0.08273 c -0.135534,1.240848 -0.340332,3.064478 -0.496943,4.297047 a 0.67764853,0.67764853 0 0 0 0.33129,0.66108 c 1.867302,1.008948 4.739779,1.415537 7.601718,1.404244 2.861933,-0.01117 5.710312,-0.441227 7.519638,-1.404244 a 0.67764853,0.67764853 0 0 0 0.331292,-0.66108 c -0.05049,-0.385476 -0.111409,-1.253621 -0.165621,-2.10821 -0.05433,-0.853083 -0.100896,-1.694118 -0.165648,-2.188805 a 0.66560145,0.66560145 0 0 0 -0.165599,-0.331236 c -0.574494,-0.685175 -1.432852,-1.10532 -2.437275,-1.528471 -0.916335,-0.386262 -1.991535,-0.786827 -3.056947,-1.239342 -0.06037,-0.133271 -0.120473,-0.519534 0,-1.116621 0.0316,-0.159621 0.08132,-0.33129 0.123482,-0.495433 0.100145,-0.112942 0.178444,-0.204803 0.289131,-0.331296 0.237175,-0.271053 0.490915,-0.553408 0.702496,-0.826724 0.210824,-0.272575 0.383997,-0.506734 0.496938,-0.825983 l 0.03996,-0.04136 c 0.432185,-1.743055 0.432185,-2.469648 0.454774,-3.099106 v -0.03855 c 0,-2.025422 -1.820613,-3.595308 -3.966503,-3.595308 z"
     inkscape:connector-curvature="0"
     style="stroke-width:0.752939" />
</svg>
