<?xml version="1.0" encoding="UTF-8" standalone="no"?>
<svg
   viewBox="0 0 44 44"
   height="22"
   width="22"
   version="1.1"
   id="svg400"
   sodipodi:docname="icon-team-dark.svg"
   inkscape:version="1.2.1 (9c6d41e, 2022-07-14)"
   xmlns:inkscape="http://www.inkscape.org/namespaces/inkscape"
   xmlns:sodipodi="http://sodipodi.sourceforge.net/DTD/sodipodi-0.dtd"
   xmlns="http://www.w3.org/2000/svg"
   xmlns:svg="http://www.w3.org/2000/svg">
  <defs
     id="defs404" />
  <sodipodi:namedview
     id="namedview402"
     pagecolor="#ffffff"
     bordercolor="#000000"
     borderopacity="0.25"
     inkscape:showpageshadow="2"
     inkscape:pageopacity="0.0"
     inkscape:pagecheckerboard="0"
     inkscape:deskcolor="#d1d1d1"
     showgrid="false"
     inkscape:zoom="3.1319684"
     inkscape:cx="81.578089"
     inkscape:cy="31.769158"
     inkscape:window-width="1920"
     inkscape:window-height="963"
     inkscape:window-x="1920"
     inkscape:window-y="25"
     inkscape:window-maximized="1"
     inkscape:current-layer="svg400" />
  <circle
     r="22"
     cx="22"
     cy="22"
     fill="#3B3B3B"
     id="circle394"
     style="fill:#3b3b3b;fill-opacity:1" />
  <path
     fill="#ffffff"
     d="M 22.000001,14.75 A 3.5,3.5 0 0 1 25.5,18.249999 3.5,3.5 0 0 1 22.000001,21.75 3.5,3.5 0 0 1 18.5,18.249999 3.5,3.5 0 0 1 22.000001,14.75 M 15,17.25 c 0.560001,0 1.08,0.150001 1.530001,0.420001 -0.15,1.43 0.269999,2.85 1.129999,3.959999 -0.499999,0.960001 -1.499998,1.62 -2.66,1.62 A 3.0000001,3.0000001 0 0 1 12,20.250001 3.0000001,3.0000001 0 0 1 15,17.25 m 14,0 A 3.0000001,3.0000001 0 0 1 32.000001,20.250001 3.0000001,3.0000001 0 0 1 29,23.25 c -1.16,0 -2.159999,-0.659999 -2.66,-1.62 0.860002,-1.109999 1.280001,-2.529999 1.130001,-3.959999 C 27.920001,17.400001 28.44,17.25 29,17.25 M 15.5,27.500001 C 15.5,25.429999 18.410002,23.75 22.000001,23.75 25.59,23.75 28.5,25.429999 28.5,27.500001 v 1.75 h -13 v -1.75 m -5.5,1.75 V 27.75 c 0,-1.389999 1.89,-2.559999 4.450001,-2.9 C 13.860001,25.53 13.5,26.469999 13.5,27.500001 v 1.75 H 10 m 24,0 h -3.5 v -1.75 C 30.5,26.469999 30.14,25.53 29.55,24.85 32.11,25.190001 34,26.360001 34,27.75 Z"
     id="path172"
     style="stroke-width:1.00001" />
</svg>
