<?xml version="1.0" encoding="UTF-8" standalone="no"?>
<svg
   viewBox="0 0 44 44"
   height="22"
   width="22"
   version="1.1"
   id="svg8"
   xml:space="preserve"
   xmlns="http://www.w3.org/2000/svg"
   xmlns:svg="http://www.w3.org/2000/svg"><defs
     id="defs12" /><circle
     r="22"
     cx="22"
     cy="22"
     fill="#6B6B6B"
     id="circle2"
     style="opacity:1" /><path
     fill="#ffffff"
     d="m 22.000001,14.145833 a 3.7916667,3.7916667 0 0 1 3.791666,3.791665 3.7916667,3.7916667 0 0 1 -3.791666,3.791668 3.7916667,3.7916667 0 0 1 -3.791668,-3.791668 3.7916667,3.7916667 0 0 1 3.791668,-3.791665 m -7.583334,2.708333 c 0.606667,0 1.17,0.162501 1.657501,0.455 -0.1625,1.549167 0.292499,3.087501 1.224165,4.289999 -0.541665,1.040001 -1.624998,1.755001 -2.881666,1.755001 a 3.2500001,3.2500001 0 0 1 -3.25,-3.25 3.2500001,3.2500001 0 0 1 3.25,-3.25 m 15.166666,0 a 3.2500001,3.2500001 0 0 1 3.250001,3.25 3.2500001,3.2500001 0 0 1 -3.250001,3.25 c -1.256666,0 -2.339999,-0.715 -2.881666,-1.755001 0.931668,-1.202498 1.386667,-2.740832 1.224167,-4.289999 0.4875,-0.292499 1.050833,-0.455 1.657499,-0.455 m -14.625,11.104167 c 0,-2.242501 3.152502,-4.0625 7.041668,-4.0625 3.889166,0 7.041666,1.819999 7.041666,4.0625 v 1.895834 H 14.958333 V 27.958333 M 9,29.854167 v -1.625001 c 0,-1.505832 2.0475,-2.773333 4.820834,-3.141666 -0.639166,0.736665 -1.029167,1.754998 -1.029167,2.870833 v 1.895834 H 9 m 26,0 h -3.791667 v -1.895834 c 0,-1.115835 -0.39,-2.134168 -1.029165,-2.870833 C 32.9525,25.455833 35,26.723334 35,28.229166 Z"
     id="path172"
     style="stroke-width:1.08334" /></svg>
