<?xml version="1.0" encoding="UTF-8" standalone="no"?>
<svg
   viewBox="0 0 44 44"
   height="22"
   width="22"
   version="1.1"
   id="svg400"
   xmlns="http://www.w3.org/2000/svg"
   xmlns:svg="http://www.w3.org/2000/svg">
  <defs
     id="defs404" />
  <circle
     r="22"
     cx="22"
     cy="22"
     fill="#3B3B3B"
     id="circle394"
     style="fill:#3b3b3b;fill-opacity:1" />
  <path
     fill="#ffffff"
     d="m 22.000001,14.145833 a 3.7916667,3.7916667 0 0 1 3.791666,3.791666 3.7916667,3.7916667 0 0 1 -3.791666,3.791667 3.7916667,3.7916667 0 0 1 -3.791668,-3.791667 3.7916667,3.7916667 0 0 1 3.791668,-3.791666 m -7.583334,2.708333 c 0.606667,0 1.17,0.162501 1.657501,0.455001 -0.1625,1.549167 0.292499,3.0875 1.224165,4.289999 -0.541665,1.040001 -1.624998,1.755 -2.881666,1.755 a 3.2500001,3.2500001 0 0 1 -3.25,-3.249999 3.2500001,3.2500001 0 0 1 3.25,-3.250001 m 15.166666,0 a 3.2500001,3.2500001 0 0 1 3.250001,3.250001 3.2500001,3.2500001 0 0 1 -3.250001,3.249999 c -1.256666,0 -2.339999,-0.714999 -2.881666,-1.755 0.931668,-1.202499 1.386667,-2.740832 1.224167,-4.289999 0.4875,-0.2925 1.050833,-0.455001 1.657499,-0.455001 m -14.625,11.104168 c 0,-2.242502 3.152502,-4.062501 7.041668,-4.062501 3.889166,0 7.041666,1.819999 7.041666,4.062501 v 1.895833 H 14.958333 V 27.958334 M 9,29.854167 v -1.625001 c 0,-1.505832 2.0475,-2.773332 4.820834,-3.141666 -0.639166,0.736666 -1.029167,1.754999 -1.029167,2.870834 v 1.895833 H 9 m 26,0 h -3.791667 v -1.895833 c 0,-1.115835 -0.39,-2.134168 -1.029166,-2.870834 C 32.9525,25.455834 35,26.723334 35,28.229166 Z"
     id="path172"
     style="stroke-width:1.08334" />
</svg>
