<?xml version="1.0" encoding="UTF-8" standalone="no"?>
<svg
   viewBox="0 0 44 44"
   height="22"
   width="22"
   version="1.1"
   id="svg8"
   sodipodi:docname="icon-team-bright.svg"
   xml:space="preserve"
   inkscape:version="1.2.1 (9c6d41e, 2022-07-14)"
   xmlns:inkscape="http://www.inkscape.org/namespaces/inkscape"
   xmlns:sodipodi="http://sodipodi.sourceforge.net/DTD/sodipodi-0.dtd"
   xmlns="http://www.w3.org/2000/svg"
   xmlns:svg="http://www.w3.org/2000/svg"><defs
     id="defs12" /><sodipodi:namedview
     id="namedview10"
     pagecolor="#ffffff"
     bordercolor="#000000"
     borderopacity="0.25"
     inkscape:showpageshadow="2"
     inkscape:pageopacity="0.0"
     inkscape:pagecheckerboard="0"
     inkscape:deskcolor="#d1d1d1"
     showgrid="false"
     inkscape:zoom="11.678384"
     inkscape:cx="-1.6697515"
     inkscape:cy="5.2661394"
     inkscape:window-width="1387"
     inkscape:window-height="1027"
     inkscape:window-x="0"
     inkscape:window-y="25"
     inkscape:window-maximized="0"
     inkscape:current-layer="svg8" /><circle
     r="22"
     cx="22"
     cy="22"
     fill="#6B6B6B"
     id="circle2"
     style="opacity:1" /><path
     fill="#ffffff"
     d="M 22.000001,14.75 A 3.5,3.5 0 0 1 25.5,18.249998 3.5,3.5 0 0 1 22.000001,21.75 3.5,3.5 0 0 1 18.5,18.249998 3.5,3.5 0 0 1 22.000001,14.75 M 15,17.25 c 0.560001,0 1.08,0.150001 1.530001,0.42 C 16.380001,19.1 16.8,20.520001 17.66,21.629999 17.160001,22.59 16.160002,23.25 15,23.25 a 3.0000001,3.0000001 0 0 1 -3,-3 3.0000001,3.0000001 0 0 1 3,-3 m 14,0 a 3.0000001,3.0000001 0 0 1 3.000001,3 A 3.0000001,3.0000001 0 0 1 29,23.25 c -1.16,0 -2.159999,-0.66 -2.66,-1.620001 C 27.200002,20.520001 27.620001,19.1 27.470001,17.67 27.920001,17.400001 28.44,17.25 29,17.25 M 15.5,27.5 c 0,-2.070001 2.910002,-3.75 6.500001,-3.75 C 25.59,23.75 28.5,25.429999 28.5,27.5 v 1.750001 h -13 V 27.5 M 10,29.250001 V 27.75 c 0,-1.389999 1.89,-2.56 4.450001,-2.9 C 13.860001,25.529999 13.5,26.469998 13.5,27.5 v 1.750001 H 10 m 24,0 H 30.5 V 27.5 c 0,-1.030002 -0.36,-1.970001 -0.949999,-2.65 C 32.11,25.19 34,26.360001 34,27.75 Z"
     id="path172"
     style="stroke-width:1.00001" /></svg>
